<svg width="32" height="32" viewBox="0 0 32 32" fill="none" xmlns="http://www.w3.org/2000/svg">
<g clip-path="url(#clip0_11_169)">
<path d="M15.0431 15.284L1.62 29.3477C1.77072 29.8819 2.04159 30.3746 2.4119 30.7881C2.78221 31.2016 3.24216 31.525 3.75659 31.7334C4.27101 31.9419 4.8263 32.03 5.37998 31.991C5.93367 31.952 6.47111 31.7869 6.95121 31.5083L22.0547 22.906L15.0431 15.284Z" fill="#EA4335"/>
<path d="M28.6162 12.8934L22.0847 9.1524L14.733 15.6041L22.1147 22.886L28.5962 19.185C29.1704 18.8844 29.6514 18.4323 29.987 17.8778C30.3226 17.3232 30.5 16.6874 30.5 16.0392C30.5 15.391 30.3226 14.7552 29.987 14.2007C29.6514 13.6461 29.1704 13.194 28.5962 12.8934H28.6162Z" fill="#FBBC04"/>
<path d="M1.62007 2.66071C1.53893 2.96067 1.49856 3.2702 1.50004 3.58095V28.4275C1.50085 28.7381 1.54118 29.0473 1.62007 29.3477L15.5032 15.6441L1.62007 2.66071Z" fill="#4285F4"/>
<path d="M15.1431 16.0042L22.0847 9.15241L7.00122 0.510141C6.43378 0.177794 5.78839 0.00177431 5.1308 7.15402e-06C4.3366 -0.00156677 3.56366 0.256602 2.92982 0.73516C2.29598 1.21372 1.836 1.88641 1.62 2.6507L15.1431 16.0042Z" fill="#34A853"/>
</g>
<defs>
<clipPath id="clip0_11_169">
<rect width="32" height="32" fill="white"/>
</clipPath>
</defs>
</svg>
